<?xml version="1.0" standalone="no"?><!DOCTYPE svg PUBLIC "-//W3C//DTD SVG 1.1//EN" "http://www.w3.org/Graphics/SVG/1.1/DTD/svg11.dtd"><svg t="1753607967694" class="icon" viewBox="0 0 1024 1024" version="1.1" xmlns="http://www.w3.org/2000/svg" p-id="6107" xmlns:xlink="http://www.w3.org/1999/xlink" width="200" height="200"><path d="M677.398015 684.736494c-91.448732 91.448732-343.214994 195.316428-434.663726 103.867696-91.448732-91.448732 12.418964-343.214994 103.867696-434.663727 91.448732-91.448732 209.993385-61.53032 300.877618 29.918412 91.448732 91.448732 121.367144 209.428886 29.918412 300.877619" fill="#E2345A" p-id="6108"></path><path d="M692.074972 437.486218c22.015436 64.352811 11.854465 131.528115-44.595369 187.97795-91.448732 91.448732-343.214994 195.316428-434.663726 103.867695-0.564498-0.564498-0.564498-1.128997-1.128997-1.693495 5.080485 23.708931 15.241455 45.159868 31.047409 60.965822 91.448732 91.448732 343.214994-12.418964 434.663726-103.867696 73.949283-73.949283 68.3043-165.962514 14.676957-247.250276" fill="#BC2252" p-id="6109"></path><path d="M471.920617 317.248071c-38.385888 0-76.771775 14.112459-112.33517 49.675854-45.159868 45.159868-91.448732 129.270121-115.722161 209.428886-27.660419 91.448732-23.144432 163.70452 11.854465 198.703418 81.85226 81.85226 324.022051-19.757442 408.696802-103.867695 90.319735-90.319735 44.030871-201.52591-29.918412-274.910695-44.595369-44.030871-103.303197-79.029768-162.575524-79.029768m-125.318632 524.418963c-46.853363 0-88.62624-11.854465-116.851158-40.079382-45.724366-45.724366-53.062845-129.270121-20.886439-235.960309C234.831312 479.823594 285.071665 389.503859 334.183021 340.392503c90.319735-90.319735 219.025358-78.46527 327.409041 29.918412 108.383682 108.383682 120.238148 237.089305 29.918412 327.409041-68.868798 67.739802-224.670342 143.947078-344.908489 143.947078" fill="#111111" p-id="6110"></path><path d="M436.357222 565.062845c7.902977-7.902977 21.450937-7.902977 29.353914 0 7.902977 7.902977 7.902977 21.450937 0 29.353914-7.902977 7.902977-38.385888 24.837927-46.288865 16.93495s9.031974-37.821389 16.934951-46.288864m-24.837928-139.99559c7.902977-7.902977 21.450937-7.902977 29.353914 0 7.902977 7.902977 7.902977 21.450937 0 29.353914-7.902977 7.902977-38.385888 24.837927-46.288864 16.93495-7.902977-7.902977 9.031974-38.385888 16.93495-46.288864M329.667034 562.804851c7.902977-7.902977 21.450937-7.902977 29.353914 0 7.902977 7.902977 7.902977 21.450937 0 29.353914-7.902977 7.902977-38.385888 24.837927-46.288864 16.934951-7.902977-7.902977 9.031974-37.821389 16.93495-46.288865m260.233738 69.997795c7.902977-7.902977 7.902977-21.450937 0-29.353914-7.902977-7.902977-21.450937-7.902977-29.353914 0-7.902977 7.902977-24.837927 38.385888-16.934951 46.288864 7.902977 7.902977 37.821389-9.031974 46.288865-16.93495M451.598677 714.654906c7.902977-7.902977 7.902977-21.450937 0-29.353914-7.902977-7.902977-21.450937-7.902977-29.353914 0-7.902977 7.902977-24.837927 38.385888-16.93495 46.288865 7.902977 7.902977 38.385888-9.031974 46.288864-16.934951" fill="#161616" p-id="6111"></path><path d="M651.431092 494.500551s-83.545755 37.821389-143.947079 26.531423c0 0-3.38699-69.997795 57.578832-113.464168 0 0-93.142227-37.821389-123.625138-156.366042 0 0 63.223815-8.467475 130.963616 53.627343 0 0 47.982359-62.094818 28.789416-114.593164 0 0 101.609702 46.288864 79.594267 156.93054 0 0 94.271224 5.644983 150.721058 62.094818 0 0-18.628445 29.353914-75.642778 46.288864 0 0 41.772878 62.094818 48.546857 121.931643 0 0.564498-66.610805 3.951488-152.979051-82.981257" fill="#3BB777" p-id="6112"></path><path d="M651.431092 497.887541s-83.545755 37.821389-143.947079 26.531423c0 0-3.38699-69.997795 57.578832-113.464168 0 0-93.142227-37.821389-123.625138-156.366042 0 0 63.223815-8.467475 130.963616 53.627343 0 0 47.982359-62.094818 28.789416-114.593164 0 0 101.609702 46.288864 79.594267 156.93054 0 0 94.271224 5.644983 150.721058 62.094818 0 0-18.628445 29.353914-75.642778 46.288864 0 0 41.772878 62.094818 48.546857 121.931643 0 0-66.610805 3.38699-152.979051-82.981257" fill="#229857" p-id="6113"></path><path d="M776.749724 516.515987c-8.467475-22.579934-19.192944-43.466373-32.176405-63.788313 51.933848-14.676957 68.868798-41.772878 68.868798-41.772878-51.36935-51.36935-136.6086-56.449835-136.6086-56.449835 19.757442-100.480706-72.255788-142.253583-72.255788-142.253583 17.499449 47.417861-26.531422 103.867696-26.531422 103.867696-46.853363-42.901874-91.448732-48.546858-110.077178-49.111356-0.564498 6.209482-1.693495 12.418964-3.38699 18.628445 31.611907 93.142227 106.690187 124.189636 106.690187 124.189636-20.32194 14.676957-36.127894 34.998897-44.595369 58.707828 57.014333 9.596472 134.915105-25.402426 134.915105-25.402425 47.982359 47.417861 89.190739 66.046307 115.157662 73.384785" fill="#3BB777" p-id="6114"></path><path d="M649.737596 469.662624c5.080485 0 9.596472 1.693495 12.983462 5.644983 43.466373 43.466373 80.723264 59.836825 102.738699 66.046307-11.289967-40.643881-35.563396-77.336273-36.127894-77.900772-3.38699-5.080485-3.951488-11.289967-2.257993-16.370452 2.257993-5.644983 6.77398-9.596472 12.418964-11.289967 23.144432-6.77398 38.385888-15.805954 46.853362-23.144432-46.288864-34.998897-110.641676-38.950386-111.206174-38.950386-5.080485-0.564498-10.16097-2.822492-13.54796-7.338478-3.38699-3.951488-4.515987-9.596472-3.38699-14.676957 11.854465-59.272326-21.450937-94.271224-43.466373-110.641676-9.031974 33.305402-18.628445 79.029768-19.192944 79.594267-1.128997 6.209482-6.209482 11.854465-12.418963 13.54796-6.209482 2.257993-12.983462 0.564498-18.063947-3.951488-31.611907-28.789416-61.53032-38.950386-80.723264-42.901875 29.353914 77.900772 90.884234 104.432194 93.706726 105.561191 6.209482 2.822492 10.725469 8.467475 11.289966 15.241455 0.564498 6.77398-2.257993 12.983462-7.338478 16.934951-31.047409 22.015436-40.643881 52.498346-43.466373 71.126791h2.257994c46.288864 0 101.045204-24.273429 101.609702-24.273429 2.257993-1.693495 5.080485-2.257993 7.338478-2.257993m138.302095 112.335171c-10.725469 0-69.433297-3.38699-142.253583-72.255788-24.837927 9.596472-82.981257 29.353914-129.83462 20.886438-8.467475-1.693495-14.676957-8.467475-15.241455-17.499448 0-2.822492-2.257993-57.014333 38.950386-100.480706-29.918412-19.757442-77.900772-62.094818-98.222712-141.124586-1.128997-5.080485-0.564498-10.725469 2.822491-14.676957 2.822492-4.515987 7.902977-7.338479 12.983462-7.902977 2.257993-0.564498 52.498346-6.209482 109.51268 33.8699 5.644983-24.273429 13.54796-57.578831 20.32194-76.771775 1.693495-5.080485 5.644983-9.031974 10.16097-10.725468 4.515987-2.257993 10.16097-2.257993 14.676957 0 33.869901 15.241455 91.448732 63.788313 85.239251 143.38258 30.482911 5.080485 88.62624 18.628445 129.270121 59.272326 6.209482 6.209482 7.338479 15.805954 2.822492 22.579934-1.693495 2.822492-16.93495 25.402426-57.014333 41.772878 12.418964 22.579934 30.482911 60.401323 34.998897 98.78721 0.564498 5.080485-1.128997 10.16097-4.515987 14.112459-3.38699 3.951488-7.902977 6.209482-12.983462 6.209482l-1.693495 0.564498" fill="#181919" p-id="6115"></path><path d="M647.479603 402.487321c-7.338479 0-13.54796-3.951488-16.370452-10.16097s-2.257993-14.112459 2.257993-19.757443c7.338479-9.031974 73.384785-90.884234 126.44763-96.529217 10.16097-1.128997 19.192944 6.209482 20.32194 16.370452 1.128997 10.16097-6.209482 19.192944-16.370452 20.321941-28.224917 2.822492-76.771775 51.933848-101.045204 82.416758-3.951488 4.515987-9.596472 7.338479-15.241455 7.338479" fill="#111111" p-id="6116"></path><path d="M310.47409 510.306505c-1.693495 0-3.38699 0-4.515986-0.564498-7.338479-2.822492-10.725469-10.725469-8.467476-17.499449 0.564498-2.257993 19.757442-54.191841 52.498347-82.981257 3.951488-3.38699 9.031974-4.515987 13.54796-2.822492 4.515987 1.693495 8.467475 5.644983 9.031973 10.725469 1.128997 5.080485-1.128997 10.16097-4.515986 12.983462-27.660419 23.708931-44.595369 71.126792-44.59537 71.126791-1.693495 5.644983-6.77398 9.031974-12.983462 9.031974m90.319736-136.044101c5.644983 4.515987 7.902977 12.418964 5.644983 19.192943-2.257993 6.77398-8.467475 11.854465-15.805953 12.418964-7.338479 0.564498-14.112459-3.38699-17.499449-9.596472-3.38699-6.77398-2.257993-14.676957 2.257993-19.757442 2.822492-3.38699 7.338479-6.209482 12.418964-6.209482 4.515987-0.564498 9.596472 0.564498 12.983462 3.951489" fill="#FEFEFE" p-id="6117"></path></svg>